<svg xmlns="http://www.w3.org/2000/svg" xmlns:xlink="http://www.w3.org/1999/xlink"><defs>
        <clipPath id="a">
            <path fill="#fff" fill-opacity="0" d="M0 0h24v24H0z"/>
        </clipPath>
    
        <clipPath id="a">
            <path fill="#fff" fill-opacity="0" d="M0 0h24v24H0z"/>
        </clipPath>
    </defs><symbol id="cross" viewBox="0 0 24 24"><g fill="none">
    <path d="M18 6 6 18M6 6l12 12" stroke="currentColor" stroke-width="2" stroke-linecap="round" stroke-linejoin="round"/>
</g></symbol><symbol id="home" viewBox="0 0 24 24"><g fill="none">
    <path d="m20 8-6-5.26a3 3 0 0 0-4 0L4 8a3 3 0 0 0-1 2.26V19a3 3 0 0 0 3 3h12a3 3 0 0 0 3-3v-8.75A3 3 0 0 0 20 8Zm-6 12h-4v-5a1 1 0 0 1 1-1h2a1 1 0 0 1 1 1v5Zm5-1a1 1 0 0 1-1 1h-2v-5a3 3 0 0 0-3-3h-2a3 3 0 0 0-3 3v5H6a1 1 0 0 1-1-1v-8.75a1 1 0 0 1 .34-.75l6-5.25a1 1 0 0 1 1.32 0l6 5.25a1 1 0 0 1 .34.75V19Z" fill="currentColor"/>
    <path d="M19 19a1 1 0 0 1-1 1h-2v-5a3 3 0 0 0-3-3h-2a3 3 0 0 0-3 3v5H6a1 1 0 0 1-1-1v-8.75a1 1 0 0 1 .34-.75l6-5.25a1 1 0 0 1 1.32 0l6 5.25a1 1 0 0 1 .34.75V19Z" fill="currentColor"/>
</g></symbol><symbol id="icon-1"><g fill="none">
    <circle cx="12" cy="12" r="9" fill="#BC3324"/>
</g></symbol><symbol id="icon-2"><g fill="none">
    <path fill="#1F1E1E" d="M0 0h110v110H0z"/>
    <path d="m63 51-6-5.26a3 3 0 0 0-4 0L47 51a3 3 0 0 0-1 2.26V62a3 3 0 0 0 3 3h12a3 3 0 0 0 3-3v-8.75A2.999 2.999 0 0 0 63 51Zm-6 12h-4v-5a1 1 0 0 1 1-1h2a1 1 0 0 1 1 1v5Zm5-1a1 1 0 0 1-1 1h-2v-5a3 3 0 0 0-3-3h-2a3 3 0 0 0-3 3v5h-2a1 1 0 0 1-1-1v-8.75a1 1 0 0 1 .34-.75l6-5.25a1 1 0 0 1 1.32 0l6 5.25a1 1 0 0 1 .34.75V62Z" fill="#BC3324"/>
    <path d="M62 62a1 1 0 0 1-1 1h-2v-5a3 3 0 0 0-3-3h-2a3 3 0 0 0-3 3v5h-2a1 1 0 0 1-1-1v-8.75a1 1 0 0 1 .34-.75l6-5.25a1 1 0 0 1 1.32 0l6 5.25a1 1 0 0 1 .34.75V62Z" fill="#BC3324"/>
</g></symbol><symbol id="icon-3"><g fill="none">
    <path fill="#1F1E1E" d="M0 0h110v110H0z"/>
    <path d="M64.663 51.772a1 1 0 0 1 .33.462 1 1 0 0 1-.32 1.02l-4.13 4 1 5.68a1 1 0 0 1-.99 1.19.93.93 0 0 1-.46-.12l-5.1-2.68-5.12 2.67a1 1 0 0 1-1.45-1.07l1-5.68-4.13-4a1 1 0 0 1-.25-1 1 1 0 0 1 .81-.68l5.69-.84 2.55-5.16a1 1 0 0 1 1.8 0l2.55 5.17 5.69.83a1 1 0 0 1 .53.208Z" fill="#BC3324"/>
</g></symbol><symbol id="insta"><g fill="none">
    
    <g clip-path="url(#a)" fill="#FFF">
        <path d="M12 7a5 5 0 1 0 0 10.001A5 5 0 0 0 12 7Zm0 8.247a3.25 3.25 0 1 1 0-6.498 3.25 3.25 0 0 1 0 6.498Z"/>
        <path d="M18 7a1 1 0 1 1-2 0 1 1 0 0 1 2 0Z" fill-rule="evenodd"/>
        <path d="M21.47 5.444a5.104 5.104 0 0 0-2.924-2.919 7.342 7.342 0 0 0-2.428-.465c-1.07-.047-1.408-.06-4.12-.06s-3.06 0-4.12.06a7.29 7.29 0 0 0-2.426.465 5.115 5.115 0 0 0-2.924 2.92 7.29 7.29 0 0 0-.466 2.423C2.014 8.935 2 9.273 2 11.982c0 2.708 0 3.053.062 4.114.017.83.173 1.648.466 2.425a5.112 5.112 0 0 0 2.925 2.919 7.316 7.316 0 0 0 2.427.499C8.95 21.985 9.288 22 12 22s3.06 0 4.12-.061a7.355 7.355 0 0 0 2.428-.464 5.132 5.132 0 0 0 2.924-2.92 7.291 7.291 0 0 0 .466-2.424c.048-1.067.062-1.405.062-4.114 0-2.71 0-3.053-.062-4.114a7.284 7.284 0 0 0-.468-2.459Zm-1.352 10.57a5.586 5.586 0 0 1-.346 1.872 3.31 3.31 0 0 1-1.901 1.897 5.544 5.544 0 0 1-1.855.345c-1.055.049-1.353.061-4.058.061-2.708 0-2.984 0-4.06-.06a5.513 5.513 0 0 1-1.853-.346 3.314 3.314 0 0 1-1.91-1.897 5.628 5.628 0 0 1-.345-1.85c-.047-1.054-.059-1.351-.059-4.053s0-2.978.06-4.053a5.578 5.578 0 0 1 .345-1.87A3.314 3.314 0 0 1 6.045 4.16a5.575 5.575 0 0 1 1.854-.345c1.056-.047 1.352-.06 4.059-.06 2.706 0 2.984 0 4.058.06.634.008 1.26.124 1.855.345a3.325 3.325 0 0 1 1.901 1.899c.218.593.335 1.218.346 1.85.047 1.055.06 1.351.06 4.053s0 2.992-.048 4.052h-.012Z"/>
    </g>
</g></symbol><symbol id="la_vk"><g fill="none">
    
    <path fill="none" d="M0 0h24v24H0z"/>
    <g clip-path="url(#a)" fill="#FFF">
        <path d="M5.71 2A3.725 3.725 0 0 0 2 5.71v12.58A3.725 3.725 0 0 0 5.71 22h12.58A3.725 3.725 0 0 0 22 18.29V5.71A3.725 3.725 0 0 0 18.29 2H5.71Zm0 1.818h12.58a1.88 1.88 0 0 1 1.892 1.893v12.578a1.88 1.88 0 0 1-1.893 1.893H5.711a1.87 1.87 0 0 1-1.342-.551 1.877 1.877 0 0 1-.55-1.342V5.711A1.88 1.88 0 0 1 5.71 3.818Z"/>
        <path d="M17.725 9.406c.083-.234 0-.406-.398-.406h-1.312c-.334 0-.488.149-.572.313 0 0-.667 1.37-1.613 2.26-.306.257-.445.34-.612.34-.083 0-.209-.083-.209-.317v-2.19c0-.281-.092-.406-.37-.406h-2.064c-.208 0-.334.13-.334.254 0 .267.473.328.522 1.077v1.628c0 .357-.077.421-.244.421-.445 0-1.527-1.376-2.17-2.95C8.225 9.124 8.1 9 7.763 9H6.45c-.375 0-.45.149-.45.313 0 .292.445 1.744 2.072 3.664C9.157 14.29 10.685 15 12.076 15c.835 0 .938-.158.938-.43v-.99c0-.317.079-.38.343-.38.195 0 .529.082 1.308.715.89.75 1.036 1.085 1.537 1.085h1.313c.375 0 .563-.158.455-.47-.12-.31-.544-.76-1.108-1.295-.306-.304-.765-.632-.904-.796-.195-.21-.14-.304 0-.492 0 0 1.6-1.897 1.766-2.54Z" fill-rule="evenodd"/>
    </g>
</g></symbol><symbol id="link" viewBox="0 0 92 62"><g fill="none">
    <path d="M40 52.213a29.836 29.836 0 0 0 15.297 8.21 29.76 29.76 0 0 0 17.26-1.707 29.902 29.902 0 0 0 13.408-11.049A30.089 30.089 0 0 0 91 31a30.089 30.089 0 0 0-5.035-16.667 29.902 29.902 0 0 0-13.407-11.05 29.76 29.76 0 0 0-17.262-1.707A29.837 29.837 0 0 0 40 9.786" stroke="currentColor" stroke-width="2" stroke-linecap="round"/>
    <path d="M5 31h60M58 24l7 7-7 7" stroke="currentColor" stroke-width="2" stroke-linecap="round" stroke-linejoin="round"/>
</g></symbol><symbol id="location" viewBox="0 0 24 24"><g fill="none">
    <circle cx="12" cy="12" r="9" fill="currentColor"/>
</g></symbol><symbol id="logo" viewBox="0 0 202 147"><g fill="none">
    <path fill="#1F1E1E" d="M0 0h147v147H0z"/>
    <path d="M39.965 72.439H26.633V50.032h-.032v-.033h-4.686V73h18.05v-.561ZM43.932 73h18.117v-.561H48.618V61.285h10.494v-.594H48.618V50.56h13.43v-.561H43.933V73ZM70.7 73V50.56c2.87 0 11.714 1.089 12.374 13.893V73h4.686V49.999h-4.686v10.329C81.655 54.19 77.167 49.999 70.7 49.999h-4.686V73H70.7ZM97.39 73V50.56c2.87 0 11.714 1.089 12.374 13.893V73h4.686V49.999h-4.686v10.329c-1.419-6.138-5.907-10.329-12.375-10.329h-4.686V73h4.686ZM119.393 73h4.686V49.999h-4.686V73Z" fill="#fff"/>
    <path fill="#BC3324" d="M81 92h121v42H81z"/>
    <path d="M108.922 124h.54l2.94-8.55h8.55l3.33 8.55h4.47l-8.1-20.91h-4.53l-7.2 20.91Zm7.5-20.25 4.35 11.19h-8.19l3.84-11.19ZM132.644 103.09V124h4.26v-7.23h5.07l4.89 7.2h4.86l-5.16-7.65c3-.78 5.28-2.64 5.28-6.81 0-5.22-3.81-6.87-8.25-6.87-4.68 0-6.03 3.51-6.69 7.41v-6.96h-4.26Zm5.43 4.38c.81-2.94 2.91-4.14 4.77-4.29 4.47-.42 4.65 2.43 4.65 6.33 0 6.33-3.36 6.75-6.24 6.75h-4.35s-.12-4.14 1.17-8.79ZM162.084 103.6l.03 20.4h4.26v-20.4h8.61v-.51h-21.51v.51h8.61Z" fill="#fff"/>
</g></symbol><symbol id="star" viewBox="0 0 24 24"><g fill="none">
    <path d="M21.663 8.772a1 1 0 0 1 .33.462 1 1 0 0 1-.32 1.02l-4.13 4 1 5.68a1 1 0 0 1-.99 1.19.93.93 0 0 1-.46-.12l-5.1-2.68-5.12 2.67a1 1 0 0 1-1.45-1.07l1-5.68-4.13-4a1 1 0 0 1-.25-1 1 1 0 0 1 .81-.68l5.69-.84 2.55-5.16a1 1 0 0 1 1.8 0l2.55 5.17 5.69.83a1 1 0 0 1 .53.208Z" fill="currentColor"/>
</g></symbol><symbol id="tagree"><g fill="none">
    <path d="M5.464 12.695H3.271q-.491 0-.94-.137H2.33q-.17-.053-.335-.125a3.313 3.313 0 0 1-1.037-.704 3.604 3.604 0 0 1-.698-1.066q-.065-.152-.114-.309v-.002Q0 9.886 0 9.375V.604L2.393 0v3.843H3.79l.598 2.414H2.393v3.118c0 .255.086.47.26.644q.14.142.31.207.143.054.308.054h1.595l.598 2.415Zm21.826.436q-.09.31-.22.61a5.184 5.184 0 0 1-1.116 1.69 5.411 5.411 0 0 1-1.675 1.147 5.028 5.028 0 0 1-2.054.422 5.051 5.051 0 0 1-1.696-.282 5.279 5.279 0 0 1-1.475-.804l1.735-1.73c.425.268.904.402 1.436.402.81 0 1.489-.289 2.034-.865.558-.564.837-1.241.837-2.032V7.645c0-.778-.279-1.462-.837-2.052q-.411-.414-.908-.626-.517-.219-1.126-.219c-.772 0-1.45.282-2.034.845-.559.59-.838 1.274-.838 2.052 0 .805.28 1.489.838 2.052.585.563 1.262.845 2.034.845.398 0 .757-.067 1.076-.201l.898 2.253-.07.028q-.868.334-1.864.334h-.04a5.189 5.189 0 0 1-2.034-.402 5.41 5.41 0 0 1-2.812-2.837q-.085-.195-.152-.395-.267-.794-.267-1.677c0-.738.12-1.428.359-2.072q.35-.943.966-1.655l.006-.006.025-.03a4.645 4.645 0 0 1 1.556-1.126 4.708 4.708 0 0 1 1.994-.422c.691 0 1.303.107 1.834.322a5.38 5.38 0 0 1 1.396.764v-.784h2.393v9.053q0 .75-.2 1.442Zm5.05-10.495a5.172 5.172 0 0 0-1.256.764v-.785H28.69v10.08h2.393v-5.05q0-.491.148-.932.204-.608.69-1.12a2.758 2.758 0 0 1 2.033-.845V2.333c-.598 0-1.136.101-1.615.303ZM15.863 12.695V2.615H13.47v.805a5.214 5.214 0 0 0-1.336-.764c-.505-.201-1.084-.302-1.735-.302q-.941 0-1.764.31v.001q-.137.051-.27.111A4.802 4.802 0 0 0 6.77 3.903a5.257 5.257 0 0 0-1.057 1.69l-.034.088v.002q-.345.927-.345 1.982 0 .9.26 1.719.054.168.119.333a5.257 5.257 0 0 0 1.057 1.69c.452.483.983.865 1.595 1.147q.062.027.124.051.886.351 1.91.351c.811 0 1.522-.154 2.134-.462l-.858-2.153c-.319.134-.678.201-1.077.201-.385 0-.757-.067-1.116-.201a2.723 2.723 0 0 1-.918-.644q-.422-.426-.631-.939-.206-.504-.206-1.093 0-.634.23-1.167.21-.484.607-.885c.266-.268.572-.476.918-.624a2.912 2.912 0 0 1 1.116-.22q.61 0 1.127.218.497.212.907.626.398.401.607.885.231.533.231 1.167v5.03h2.393Zm20.926-3.823c.133.309.325.584.578.825.28.282.592.496.937.644.346.134.712.201 1.097.201q.673 0 1.224-.259.119-.056.232-.123l2.493 1.005a5.146 5.146 0 0 1-1.735 1.329 5.287 5.287 0 0 1-2.214.462 5.24 5.24 0 0 1-2.054-.402 5.41 5.41 0 0 1-2.812-2.837 5.324 5.324 0 0 1-.398-2.052c0-.738.132-1.428.398-2.072a5.47 5.47 0 0 1 1.137-1.69 5.131 5.131 0 0 1 1.675-1.127 5.028 5.028 0 0 1 2.054-.422c.731 0 1.416.14 2.054.422q.592.25 1.093.621.309.23.582.506a5.19 5.19 0 0 1 1.117 1.69c.28.644.419 1.334.419 2.072 0 .43-.047.832-.14 1.207H36.79Zm11.912.825a2.507 2.507 0 0 1-.578-.825h7.737c.093-.375.14-.778.14-1.207 0-.738-.14-1.428-.419-2.072q-.264-.639-.667-1.172-.206-.273-.45-.518a5.132 5.132 0 0 0-1.675-1.127q-.217-.095-.44-.17-.765-.252-1.614-.252-.848 0-1.613.252-.224.075-.44.17a5.133 5.133 0 0 0-1.676 1.127 5.467 5.467 0 0 0-1.136 1.69q-.052.124-.097.251-.302.857-.302 1.821 0 .82.227 1.572.074.244.172.48c.279.644.658 1.207 1.136 1.69a5.412 5.412 0 0 0 1.675 1.147 5.24 5.24 0 0 0 2.054.402c.798 0 1.536-.154 2.214-.462a5.146 5.146 0 0 0 1.735-1.329L52.19 10.16c-.425.255-.91.382-1.456.382-.385 0-.75-.067-1.096-.201a2.938 2.938 0 0 1-.938-.644Zm-9.3-4.929c-.77 0-1.449.282-2.034.845a2.733 2.733 0 0 0-.578.845h5.224a2.73 2.73 0 0 0-.578-.845 2.758 2.758 0 0 0-2.034-.845Zm10.438.14q.425-.14.896-.14c.798 0 1.476.282 2.034.845.253.255.446.536.579.845h-5.225c.133-.309.326-.59.578-.845q.52-.5 1.138-.704Z" fill="currentColor" fill-rule="evenodd"/>
</g></symbol></svg>